<mxfile host="Electron" modified="2023-12-11T12:57:26.650Z" agent="Mozilla/5.0 (Windows NT 10.0; Win64; x64) AppleWebKit/537.36 (KHTML, like Gecko) draw.io/21.2.8 Chrome/112.0.5615.165 Electron/24.2.0 Safari/537.36" etag="MHVlqNjL2cZJfhzlcGCl" version="21.2.8" type="device">
  <diagram name="Seite-1" id="QGgA-zgH2fm4I0vu7a0_">
    <mxGraphModel dx="2272" dy="1878" grid="1" gridSize="10" guides="1" tooltips="1" connect="1" arrows="1" fold="1" page="1" pageScale="1" pageWidth="827" pageHeight="1169" math="0" shadow="0">
      <root>
        <mxCell id="0" />
        <mxCell id="1" parent="0" />
        <mxCell id="2CjsqzTwXc4l-IepNPfR-9" style="edgeStyle=orthogonalEdgeStyle;rounded=0;orthogonalLoop=1;jettySize=auto;html=1;exitX=1;exitY=0.25;exitDx=0;exitDy=0;entryX=0;entryY=0.5;entryDx=0;entryDy=0;strokeWidth=2;endArrow=diamond;endFill=1;" parent="1" source="2CjsqzTwXc4l-IepNPfR-1" target="2CjsqzTwXc4l-IepNPfR-2" edge="1">
          <mxGeometry relative="1" as="geometry">
            <Array as="points">
              <mxPoint x="280" y="105" />
              <mxPoint x="280" y="75" />
            </Array>
          </mxGeometry>
        </mxCell>
        <mxCell id="2CjsqzTwXc4l-IepNPfR-10" style="edgeStyle=orthogonalEdgeStyle;rounded=0;orthogonalLoop=1;jettySize=auto;html=1;exitX=1;exitY=0.5;exitDx=0;exitDy=0;entryX=0;entryY=0.5;entryDx=0;entryDy=0;strokeWidth=2;endArrow=diamond;endFill=1;" parent="1" source="2CjsqzTwXc4l-IepNPfR-1" target="2CjsqzTwXc4l-IepNPfR-6" edge="1">
          <mxGeometry relative="1" as="geometry">
            <Array as="points">
              <mxPoint x="160" y="140" />
              <mxPoint x="270" y="140" />
              <mxPoint x="270" y="230" />
            </Array>
          </mxGeometry>
        </mxCell>
        <mxCell id="2CjsqzTwXc4l-IepNPfR-11" style="edgeStyle=orthogonalEdgeStyle;rounded=0;orthogonalLoop=1;jettySize=auto;html=1;exitX=1;exitY=0.75;exitDx=0;exitDy=0;entryX=0;entryY=0.5;entryDx=0;entryDy=0;strokeWidth=2;endArrow=diamond;endFill=1;" parent="1" source="2CjsqzTwXc4l-IepNPfR-1" target="2CjsqzTwXc4l-IepNPfR-5" edge="1">
          <mxGeometry relative="1" as="geometry">
            <Array as="points">
              <mxPoint x="160" y="165" />
              <mxPoint x="240" y="165" />
              <mxPoint x="240" y="400" />
            </Array>
          </mxGeometry>
        </mxCell>
        <mxCell id="2CjsqzTwXc4l-IepNPfR-87" style="edgeStyle=orthogonalEdgeStyle;rounded=0;orthogonalLoop=1;jettySize=auto;html=1;exitX=0.5;exitY=1;exitDx=0;exitDy=0;entryX=0.5;entryY=0;entryDx=0;entryDy=0;strokeWidth=2;endArrow=diamond;endFill=1;startArrow=none;startFill=0;fillColor=#f8cecc;strokeColor=#000000;" parent="1" source="2CjsqzTwXc4l-IepNPfR-1" target="2CjsqzTwXc4l-IepNPfR-86" edge="1">
          <mxGeometry relative="1" as="geometry" />
        </mxCell>
        <mxCell id="2CjsqzTwXc4l-IepNPfR-1" value="Driver" style="rounded=0;whiteSpace=wrap;html=1;strokeWidth=3;" parent="1" vertex="1">
          <mxGeometry x="40" y="80" width="120" height="100" as="geometry" />
        </mxCell>
        <mxCell id="2CjsqzTwXc4l-IepNPfR-25" style="edgeStyle=orthogonalEdgeStyle;rounded=0;orthogonalLoop=1;jettySize=auto;html=1;exitX=1;exitY=0.5;exitDx=0;exitDy=0;entryX=0.5;entryY=0;entryDx=0;entryDy=0;strokeWidth=2;endArrow=diamond;endFill=1;" parent="1" source="2CjsqzTwXc4l-IepNPfR-2" target="2CjsqzTwXc4l-IepNPfR-3" edge="1">
          <mxGeometry relative="1" as="geometry" />
        </mxCell>
        <mxCell id="2CjsqzTwXc4l-IepNPfR-2" value="FirstPlace" style="rounded=0;whiteSpace=wrap;html=1;strokeWidth=3;" parent="1" vertex="1">
          <mxGeometry x="340" y="45" width="120" height="60" as="geometry" />
        </mxCell>
        <mxCell id="2CjsqzTwXc4l-IepNPfR-19" style="edgeStyle=orthogonalEdgeStyle;rounded=0;orthogonalLoop=1;jettySize=auto;html=1;exitX=0.901;exitY=0.01;exitDx=0;exitDy=0;entryX=1;entryY=0;entryDx=0;entryDy=0;endArrow=diamond;endFill=1;strokeWidth=2;exitPerimeter=0;" parent="1" source="2CjsqzTwXc4l-IepNPfR-3" target="2CjsqzTwXc4l-IepNPfR-2" edge="1">
          <mxGeometry relative="1" as="geometry">
            <Array as="points">
              <mxPoint x="682" y="170" />
              <mxPoint x="680" y="170" />
              <mxPoint x="680" y="45" />
            </Array>
          </mxGeometry>
        </mxCell>
        <mxCell id="2CjsqzTwXc4l-IepNPfR-23" style="edgeStyle=orthogonalEdgeStyle;rounded=0;orthogonalLoop=1;jettySize=auto;html=1;exitX=0.896;exitY=1.015;exitDx=0;exitDy=0;entryX=1;entryY=1;entryDx=0;entryDy=0;endArrow=diamond;endFill=1;strokeWidth=2;exitPerimeter=0;" parent="1" source="2CjsqzTwXc4l-IepNPfR-3" target="2CjsqzTwXc4l-IepNPfR-5" edge="1">
          <mxGeometry relative="1" as="geometry">
            <Array as="points">
              <mxPoint x="682" y="290" />
              <mxPoint x="680" y="290" />
              <mxPoint x="680" y="430" />
            </Array>
          </mxGeometry>
        </mxCell>
        <mxCell id="2CjsqzTwXc4l-IepNPfR-28" style="edgeStyle=orthogonalEdgeStyle;rounded=0;orthogonalLoop=1;jettySize=auto;html=1;exitX=0;exitY=0.5;exitDx=0;exitDy=0;entryX=1;entryY=0.25;entryDx=0;entryDy=0;strokeWidth=2;endArrow=diamond;endFill=1;" parent="1" source="2CjsqzTwXc4l-IepNPfR-3" target="2CjsqzTwXc4l-IepNPfR-6" edge="1">
          <mxGeometry relative="1" as="geometry">
            <Array as="points">
              <mxPoint x="565" y="215" />
            </Array>
          </mxGeometry>
        </mxCell>
        <mxCell id="2CjsqzTwXc4l-IepNPfR-3" value="Race" style="rounded=0;whiteSpace=wrap;html=1;strokeWidth=3;" parent="1" vertex="1">
          <mxGeometry x="565" y="170" width="130" height="120" as="geometry" />
        </mxCell>
        <mxCell id="2CjsqzTwXc4l-IepNPfR-4" value="Team" style="rounded=0;whiteSpace=wrap;html=1;strokeWidth=3;" parent="1" vertex="1">
          <mxGeometry x="40" y="340" width="120" height="60" as="geometry" />
        </mxCell>
        <mxCell id="2CjsqzTwXc4l-IepNPfR-26" style="edgeStyle=orthogonalEdgeStyle;rounded=0;orthogonalLoop=1;jettySize=auto;html=1;exitX=1;exitY=0.5;exitDx=0;exitDy=0;entryX=0.5;entryY=1;entryDx=0;entryDy=0;strokeWidth=2;endArrow=diamond;endFill=1;" parent="1" source="2CjsqzTwXc4l-IepNPfR-5" target="2CjsqzTwXc4l-IepNPfR-3" edge="1">
          <mxGeometry relative="1" as="geometry" />
        </mxCell>
        <mxCell id="2CjsqzTwXc4l-IepNPfR-5" value="ThirdPlace" style="rounded=0;whiteSpace=wrap;html=1;strokeWidth=3;" parent="1" vertex="1">
          <mxGeometry x="340" y="370" width="120" height="60" as="geometry" />
        </mxCell>
        <mxCell id="2CjsqzTwXc4l-IepNPfR-29" style="edgeStyle=orthogonalEdgeStyle;rounded=0;orthogonalLoop=1;jettySize=auto;html=1;exitX=1;exitY=0.75;exitDx=0;exitDy=0;endArrow=diamond;endFill=1;strokeWidth=2;" parent="1" source="2CjsqzTwXc4l-IepNPfR-6" edge="1">
          <mxGeometry relative="1" as="geometry">
            <Array as="points">
              <mxPoint x="565" y="245" />
            </Array>
            <mxPoint x="565" y="250" as="targetPoint" />
          </mxGeometry>
        </mxCell>
        <mxCell id="2CjsqzTwXc4l-IepNPfR-6" value="SecondPlace" style="rounded=0;whiteSpace=wrap;html=1;strokeWidth=3;" parent="1" vertex="1">
          <mxGeometry x="340" y="200" width="120" height="60" as="geometry" />
        </mxCell>
        <mxCell id="2CjsqzTwXc4l-IepNPfR-58" style="edgeStyle=orthogonalEdgeStyle;rounded=0;orthogonalLoop=1;jettySize=auto;html=1;exitX=0;exitY=0.5;exitDx=0;exitDy=0;entryX=1;entryY=0.5;entryDx=0;entryDy=0;endArrow=none;endFill=0;" parent="1" source="2CjsqzTwXc4l-IepNPfR-30" target="2CjsqzTwXc4l-IepNPfR-3" edge="1">
          <mxGeometry relative="1" as="geometry" />
        </mxCell>
        <mxCell id="2CjsqzTwXc4l-IepNPfR-30" value="&lt;font size=&quot;1&quot;&gt;LapRecord&lt;/font&gt;" style="ellipse;whiteSpace=wrap;html=1;fillColor=#60a917;fontColor=#ffffff;strokeColor=#2D7600;" parent="1" vertex="1">
          <mxGeometry x="770" y="365" width="70" height="30" as="geometry" />
        </mxCell>
        <mxCell id="2CjsqzTwXc4l-IepNPfR-45" style="edgeStyle=orthogonalEdgeStyle;rounded=0;orthogonalLoop=1;jettySize=auto;html=1;exitX=0;exitY=0.5;exitDx=0;exitDy=0;entryX=1;entryY=0.5;entryDx=0;entryDy=0;endArrow=none;endFill=0;" parent="1" source="2CjsqzTwXc4l-IepNPfR-31" target="2CjsqzTwXc4l-IepNPfR-3" edge="1">
          <mxGeometry relative="1" as="geometry" />
        </mxCell>
        <mxCell id="2CjsqzTwXc4l-IepNPfR-31" value="&lt;font style=&quot;font-size: 10px;&quot;&gt;&lt;u&gt;&lt;b&gt;RaceID&lt;/b&gt;&lt;/u&gt;&lt;/font&gt;" style="ellipse;whiteSpace=wrap;html=1;fillColor=#e3c800;fontColor=#000000;strokeColor=#B09500;" parent="1" vertex="1">
          <mxGeometry x="770" y="5" width="70" height="30" as="geometry" />
        </mxCell>
        <mxCell id="2CjsqzTwXc4l-IepNPfR-46" style="edgeStyle=orthogonalEdgeStyle;rounded=0;orthogonalLoop=1;jettySize=auto;html=1;exitX=0;exitY=0.5;exitDx=0;exitDy=0;entryX=1;entryY=0.5;entryDx=0;entryDy=0;endArrow=none;endFill=0;" parent="1" source="2CjsqzTwXc4l-IepNPfR-32" target="2CjsqzTwXc4l-IepNPfR-3" edge="1">
          <mxGeometry relative="1" as="geometry" />
        </mxCell>
        <mxCell id="2CjsqzTwXc4l-IepNPfR-32" value="&lt;font style=&quot;font-size: 10px;&quot;&gt;RaceName&lt;/font&gt;" style="ellipse;whiteSpace=wrap;html=1;fillColor=#60a917;fontColor=#ffffff;strokeColor=#2D7600;" parent="1" vertex="1">
          <mxGeometry x="770" y="45" width="70" height="30" as="geometry" />
        </mxCell>
        <mxCell id="2CjsqzTwXc4l-IepNPfR-48" style="edgeStyle=orthogonalEdgeStyle;rounded=0;orthogonalLoop=1;jettySize=auto;html=1;exitX=0;exitY=0.5;exitDx=0;exitDy=0;entryX=1;entryY=0.5;entryDx=0;entryDy=0;endArrow=none;endFill=0;" parent="1" source="2CjsqzTwXc4l-IepNPfR-33" target="2CjsqzTwXc4l-IepNPfR-3" edge="1">
          <mxGeometry relative="1" as="geometry" />
        </mxCell>
        <mxCell id="2CjsqzTwXc4l-IepNPfR-33" value="&lt;font style=&quot;font-size: 10px;&quot;&gt;RaceDate&lt;/font&gt;" style="ellipse;whiteSpace=wrap;html=1;fillColor=#d80073;fontColor=#ffffff;strokeColor=#A50040;" parent="1" vertex="1">
          <mxGeometry x="770" y="85" width="70" height="30" as="geometry" />
        </mxCell>
        <mxCell id="2CjsqzTwXc4l-IepNPfR-49" style="edgeStyle=orthogonalEdgeStyle;rounded=0;orthogonalLoop=1;jettySize=auto;html=1;exitX=0;exitY=0.5;exitDx=0;exitDy=0;entryX=1;entryY=0.5;entryDx=0;entryDy=0;endArrow=none;endFill=0;" parent="1" source="2CjsqzTwXc4l-IepNPfR-34" target="2CjsqzTwXc4l-IepNPfR-3" edge="1">
          <mxGeometry relative="1" as="geometry" />
        </mxCell>
        <mxCell id="2CjsqzTwXc4l-IepNPfR-34" value="&lt;font style=&quot;font-size: 10px;&quot;&gt;RaceLocation&lt;/font&gt;" style="ellipse;whiteSpace=wrap;html=1;fillColor=#60a917;fontColor=#ffffff;strokeColor=#2D7600;" parent="1" vertex="1">
          <mxGeometry x="770" y="125" width="70" height="30" as="geometry" />
        </mxCell>
        <mxCell id="2CjsqzTwXc4l-IepNPfR-51" style="edgeStyle=orthogonalEdgeStyle;rounded=0;orthogonalLoop=1;jettySize=auto;html=1;exitX=0;exitY=0.5;exitDx=0;exitDy=0;entryX=1;entryY=0.5;entryDx=0;entryDy=0;endArrow=none;endFill=0;" parent="1" source="2CjsqzTwXc4l-IepNPfR-35" target="2CjsqzTwXc4l-IepNPfR-3" edge="1">
          <mxGeometry relative="1" as="geometry" />
        </mxCell>
        <mxCell id="2CjsqzTwXc4l-IepNPfR-35" value="&lt;font style=&quot;font-size: 10px;&quot;&gt;CircuitName&lt;/font&gt;" style="ellipse;whiteSpace=wrap;html=1;fillColor=#60a917;fontColor=#ffffff;strokeColor=#2D7600;" parent="1" vertex="1">
          <mxGeometry x="770" y="205" width="70" height="30" as="geometry" />
        </mxCell>
        <mxCell id="2CjsqzTwXc4l-IepNPfR-50" style="edgeStyle=orthogonalEdgeStyle;rounded=0;orthogonalLoop=1;jettySize=auto;html=1;exitX=0;exitY=0.5;exitDx=0;exitDy=0;entryX=1;entryY=0.5;entryDx=0;entryDy=0;endArrow=none;endFill=0;" parent="1" source="2CjsqzTwXc4l-IepNPfR-36" target="2CjsqzTwXc4l-IepNPfR-3" edge="1">
          <mxGeometry relative="1" as="geometry" />
        </mxCell>
        <mxCell id="2CjsqzTwXc4l-IepNPfR-36" value="&lt;font size=&quot;1&quot;&gt;Country&lt;/font&gt;" style="ellipse;whiteSpace=wrap;html=1;fillColor=#60a917;fontColor=#ffffff;strokeColor=#2D7600;" parent="1" vertex="1">
          <mxGeometry x="770" y="165" width="70" height="30" as="geometry" />
        </mxCell>
        <mxCell id="2CjsqzTwXc4l-IepNPfR-52" style="edgeStyle=orthogonalEdgeStyle;rounded=0;orthogonalLoop=1;jettySize=auto;html=1;exitX=0;exitY=0.5;exitDx=0;exitDy=0;entryX=1;entryY=0.5;entryDx=0;entryDy=0;endArrow=none;endFill=0;" parent="1" source="2CjsqzTwXc4l-IepNPfR-37" target="2CjsqzTwXc4l-IepNPfR-3" edge="1">
          <mxGeometry relative="1" as="geometry" />
        </mxCell>
        <mxCell id="2CjsqzTwXc4l-IepNPfR-37" value="&lt;font style=&quot;font-size: 9px;&quot;&gt;CircuitLengthKM&lt;/font&gt;" style="ellipse;whiteSpace=wrap;html=1;fillColor=#e51400;fontColor=#ffffff;strokeColor=#B20000;" parent="1" vertex="1">
          <mxGeometry x="770" y="245" width="70" height="30" as="geometry" />
        </mxCell>
        <mxCell id="2CjsqzTwXc4l-IepNPfR-60" style="edgeStyle=orthogonalEdgeStyle;rounded=0;orthogonalLoop=1;jettySize=auto;html=1;exitX=0;exitY=0.5;exitDx=0;exitDy=0;entryX=1;entryY=0.5;entryDx=0;entryDy=0;endArrow=none;endFill=0;" parent="1" source="2CjsqzTwXc4l-IepNPfR-38" target="2CjsqzTwXc4l-IepNPfR-3" edge="1">
          <mxGeometry relative="1" as="geometry" />
        </mxCell>
        <mxCell id="2CjsqzTwXc4l-IepNPfR-38" value="&lt;font style=&quot;font-size: 9px;&quot;&gt;NumberOfLaps&lt;/font&gt;" style="ellipse;whiteSpace=wrap;html=1;fillColor=#0050ef;fontColor=#ffffff;strokeColor=#001DBC;" parent="1" vertex="1">
          <mxGeometry x="770" y="285" width="70" height="30" as="geometry" />
        </mxCell>
        <mxCell id="2CjsqzTwXc4l-IepNPfR-59" style="edgeStyle=orthogonalEdgeStyle;rounded=0;orthogonalLoop=1;jettySize=auto;html=1;exitX=0;exitY=0.5;exitDx=0;exitDy=0;entryX=1;entryY=0.5;entryDx=0;entryDy=0;endArrow=none;endFill=0;" parent="1" source="2CjsqzTwXc4l-IepNPfR-39" target="2CjsqzTwXc4l-IepNPfR-3" edge="1">
          <mxGeometry relative="1" as="geometry" />
        </mxCell>
        <mxCell id="2CjsqzTwXc4l-IepNPfR-39" value="&lt;font style=&quot;font-size: 8px;&quot;&gt;RaceDistanceKM&lt;/font&gt;" style="ellipse;whiteSpace=wrap;html=1;fillColor=#e51400;fontColor=#ffffff;strokeColor=#B20000;" parent="1" vertex="1">
          <mxGeometry x="770" y="325" width="70" height="30" as="geometry" />
        </mxCell>
        <mxCell id="2CjsqzTwXc4l-IepNPfR-57" style="edgeStyle=orthogonalEdgeStyle;rounded=0;orthogonalLoop=1;jettySize=auto;html=1;exitX=0;exitY=0.5;exitDx=0;exitDy=0;entryX=1;entryY=0.5;entryDx=0;entryDy=0;endArrow=none;endFill=0;" parent="1" source="2CjsqzTwXc4l-IepNPfR-40" target="2CjsqzTwXc4l-IepNPfR-3" edge="1">
          <mxGeometry relative="1" as="geometry" />
        </mxCell>
        <mxCell id="2CjsqzTwXc4l-IepNPfR-40" value="&lt;font style=&quot;font-size: 8px;&quot;&gt;NumberOfCorners&lt;/font&gt;" style="ellipse;whiteSpace=wrap;html=1;fillColor=#0050ef;fontColor=#ffffff;strokeColor=#001DBC;" parent="1" vertex="1">
          <mxGeometry x="770" y="405" width="70" height="30" as="geometry" />
        </mxCell>
        <mxCell id="2CjsqzTwXc4l-IepNPfR-56" style="edgeStyle=orthogonalEdgeStyle;rounded=0;orthogonalLoop=1;jettySize=auto;html=1;exitX=0;exitY=0.5;exitDx=0;exitDy=0;entryX=1;entryY=0.5;entryDx=0;entryDy=0;endArrow=none;endFill=0;" parent="1" source="2CjsqzTwXc4l-IepNPfR-41" target="2CjsqzTwXc4l-IepNPfR-3" edge="1">
          <mxGeometry relative="1" as="geometry" />
        </mxCell>
        <mxCell id="2CjsqzTwXc4l-IepNPfR-41" value="&lt;font size=&quot;1&quot;&gt;YearOf1GP&lt;/font&gt;" style="ellipse;whiteSpace=wrap;html=1;fillColor=#0050ef;fontColor=#ffffff;strokeColor=#001DBC;" parent="1" vertex="1">
          <mxGeometry x="770" y="445" width="70" height="30" as="geometry" />
        </mxCell>
        <mxCell id="2CjsqzTwXc4l-IepNPfR-73" style="edgeStyle=orthogonalEdgeStyle;rounded=0;orthogonalLoop=1;jettySize=auto;html=1;exitX=0.5;exitY=1;exitDx=0;exitDy=0;entryX=0.5;entryY=0;entryDx=0;entryDy=0;endArrow=none;endFill=0;" parent="1" source="2CjsqzTwXc4l-IepNPfR-61" target="2CjsqzTwXc4l-IepNPfR-2" edge="1">
          <mxGeometry relative="1" as="geometry" />
        </mxCell>
        <mxCell id="2CjsqzTwXc4l-IepNPfR-61" value="&lt;font style=&quot;font-size: 10px;&quot;&gt;&lt;u&gt;&lt;b&gt;Result1ID&lt;/b&gt;&lt;/u&gt;&lt;/font&gt;" style="ellipse;whiteSpace=wrap;html=1;fillColor=#e3c800;fontColor=#000000;strokeColor=#B09500;" parent="1" vertex="1">
          <mxGeometry x="320" y="-30" width="70" height="30" as="geometry" />
        </mxCell>
        <mxCell id="2CjsqzTwXc4l-IepNPfR-81" style="edgeStyle=orthogonalEdgeStyle;rounded=0;orthogonalLoop=1;jettySize=auto;html=1;exitX=0.5;exitY=0;exitDx=0;exitDy=0;entryX=0.5;entryY=1;entryDx=0;entryDy=0;endArrow=none;endFill=0;" parent="1" source="2CjsqzTwXc4l-IepNPfR-65" target="2CjsqzTwXc4l-IepNPfR-6" edge="1">
          <mxGeometry relative="1" as="geometry" />
        </mxCell>
        <mxCell id="2CjsqzTwXc4l-IepNPfR-65" value="&lt;font style=&quot;font-size: 10px;&quot;&gt;Points&lt;/font&gt;" style="ellipse;whiteSpace=wrap;html=1;fillColor=#0050ef;fontColor=#ffffff;strokeColor=#001DBC;" parent="1" vertex="1">
          <mxGeometry x="365" y="280" width="70" height="30" as="geometry" />
        </mxCell>
        <mxCell id="2CjsqzTwXc4l-IepNPfR-78" style="edgeStyle=orthogonalEdgeStyle;rounded=0;orthogonalLoop=1;jettySize=auto;html=1;exitX=0.5;exitY=1;exitDx=0;exitDy=0;entryX=0.5;entryY=0;entryDx=0;entryDy=0;endArrow=none;endFill=0;" parent="1" source="2CjsqzTwXc4l-IepNPfR-66" target="2CjsqzTwXc4l-IepNPfR-6" edge="1">
          <mxGeometry relative="1" as="geometry">
            <Array as="points">
              <mxPoint x="400" y="190" />
              <mxPoint x="400" y="190" />
            </Array>
          </mxGeometry>
        </mxCell>
        <mxCell id="2CjsqzTwXc4l-IepNPfR-66" value="&lt;font style=&quot;font-size: 10px;&quot;&gt;&lt;u&gt;&lt;b&gt;Result2ID&lt;/b&gt;&lt;/u&gt;&lt;/font&gt;" style="ellipse;whiteSpace=wrap;html=1;fillColor=#e3c800;fontColor=#000000;strokeColor=#B09500;" parent="1" vertex="1">
          <mxGeometry x="365" y="150" width="70" height="30" as="geometry" />
        </mxCell>
        <mxCell id="2CjsqzTwXc4l-IepNPfR-74" style="edgeStyle=orthogonalEdgeStyle;rounded=0;orthogonalLoop=1;jettySize=auto;html=1;exitX=0.5;exitY=1;exitDx=0;exitDy=0;entryX=0.5;entryY=0;entryDx=0;entryDy=0;endArrow=none;endFill=0;" parent="1" source="2CjsqzTwXc4l-IepNPfR-68" target="2CjsqzTwXc4l-IepNPfR-2" edge="1">
          <mxGeometry relative="1" as="geometry" />
        </mxCell>
        <mxCell id="2CjsqzTwXc4l-IepNPfR-68" value="&lt;font style=&quot;font-size: 10px;&quot;&gt;Points&lt;/font&gt;" style="ellipse;whiteSpace=wrap;html=1;fillColor=#0050ef;fontColor=#ffffff;strokeColor=#001DBC;" parent="1" vertex="1">
          <mxGeometry x="410" y="-30" width="70" height="30" as="geometry" />
        </mxCell>
        <mxCell id="2CjsqzTwXc4l-IepNPfR-83" style="edgeStyle=orthogonalEdgeStyle;rounded=0;orthogonalLoop=1;jettySize=auto;html=1;exitX=0.5;exitY=0;exitDx=0;exitDy=0;entryX=0.5;entryY=1;entryDx=0;entryDy=0;endArrow=none;endFill=0;" parent="1" source="2CjsqzTwXc4l-IepNPfR-69" target="2CjsqzTwXc4l-IepNPfR-5" edge="1">
          <mxGeometry relative="1" as="geometry" />
        </mxCell>
        <mxCell id="2CjsqzTwXc4l-IepNPfR-69" value="&lt;font style=&quot;font-size: 10px;&quot;&gt;Points&lt;/font&gt;" style="ellipse;whiteSpace=wrap;html=1;fillColor=#0050ef;fontColor=#ffffff;strokeColor=#001DBC;" parent="1" vertex="1">
          <mxGeometry x="410" y="470" width="70" height="30" as="geometry" />
        </mxCell>
        <mxCell id="2CjsqzTwXc4l-IepNPfR-82" style="edgeStyle=orthogonalEdgeStyle;rounded=0;orthogonalLoop=1;jettySize=auto;html=1;exitX=0.5;exitY=0;exitDx=0;exitDy=0;entryX=0.5;entryY=1;entryDx=0;entryDy=0;endArrow=none;endFill=0;" parent="1" source="2CjsqzTwXc4l-IepNPfR-71" target="2CjsqzTwXc4l-IepNPfR-5" edge="1">
          <mxGeometry relative="1" as="geometry">
            <Array as="points">
              <mxPoint x="355" y="450" />
              <mxPoint x="400" y="450" />
            </Array>
          </mxGeometry>
        </mxCell>
        <mxCell id="2CjsqzTwXc4l-IepNPfR-71" value="&lt;font style=&quot;font-size: 10px;&quot;&gt;&lt;u&gt;&lt;b&gt;Result3ID&lt;/b&gt;&lt;/u&gt;&lt;/font&gt;" style="ellipse;whiteSpace=wrap;html=1;fillColor=#e3c800;fontColor=#000000;strokeColor=#B09500;" parent="1" vertex="1">
          <mxGeometry x="320" y="470" width="70" height="30" as="geometry" />
        </mxCell>
        <mxCell id="2CjsqzTwXc4l-IepNPfR-88" style="edgeStyle=orthogonalEdgeStyle;rounded=0;orthogonalLoop=1;jettySize=auto;html=1;exitX=0.5;exitY=1;exitDx=0;exitDy=0;entryX=0.5;entryY=0;entryDx=0;entryDy=0;strokeWidth=2;endArrow=none;endFill=0;fillColor=#f8cecc;strokeColor=#000000;startArrow=diamond;startFill=1;" parent="1" source="2CjsqzTwXc4l-IepNPfR-86" target="2CjsqzTwXc4l-IepNPfR-4" edge="1">
          <mxGeometry relative="1" as="geometry" />
        </mxCell>
        <mxCell id="2CjsqzTwXc4l-IepNPfR-86" value="DriverInTeam" style="rhombus;whiteSpace=wrap;html=1;strokeWidth=2;" parent="1" vertex="1">
          <mxGeometry x="50" y="235" width="100" height="55" as="geometry" />
        </mxCell>
        <mxCell id="2CjsqzTwXc4l-IepNPfR-122" style="edgeStyle=orthogonalEdgeStyle;rounded=0;orthogonalLoop=1;jettySize=auto;html=1;exitX=1;exitY=0.5;exitDx=0;exitDy=0;entryX=0;entryY=0.5;entryDx=0;entryDy=0;endArrow=none;endFill=0;" parent="1" source="2CjsqzTwXc4l-IepNPfR-90" target="2CjsqzTwXc4l-IepNPfR-1" edge="1">
          <mxGeometry relative="1" as="geometry" />
        </mxCell>
        <mxCell id="2CjsqzTwXc4l-IepNPfR-90" value="&lt;font style=&quot;font-size: 10px;&quot;&gt;BirthDate&lt;/font&gt;" style="ellipse;whiteSpace=wrap;html=1;fillColor=#d80073;fontColor=#ffffff;strokeColor=#A50040;" parent="1" vertex="1">
          <mxGeometry x="-70" y="-80" width="70" height="30" as="geometry" />
        </mxCell>
        <mxCell id="2CjsqzTwXc4l-IepNPfR-130" style="edgeStyle=orthogonalEdgeStyle;rounded=0;orthogonalLoop=1;jettySize=auto;html=1;exitX=0;exitY=0.5;exitDx=0;exitDy=0;entryX=0;entryY=0.5;entryDx=0;entryDy=0;endArrow=none;endFill=0;" parent="1" source="2CjsqzTwXc4l-IepNPfR-91" target="2CjsqzTwXc4l-IepNPfR-1" edge="1">
          <mxGeometry relative="1" as="geometry" />
        </mxCell>
        <mxCell id="2CjsqzTwXc4l-IepNPfR-91" value="&lt;span style=&quot;font-size: 10px;&quot;&gt;DriverNumber&lt;/span&gt;" style="ellipse;whiteSpace=wrap;html=1;fillColor=#0050ef;fontColor=#ffffff;strokeColor=#001DBC;" parent="1" vertex="1">
          <mxGeometry x="40" y="-160" width="70" height="30" as="geometry" />
        </mxCell>
        <mxCell id="2CjsqzTwXc4l-IepNPfR-129" style="edgeStyle=orthogonalEdgeStyle;rounded=0;orthogonalLoop=1;jettySize=auto;html=1;exitX=1;exitY=0.5;exitDx=0;exitDy=0;entryX=0;entryY=0.5;entryDx=0;entryDy=0;endArrow=none;endFill=0;" parent="1" source="2CjsqzTwXc4l-IepNPfR-92" target="2CjsqzTwXc4l-IepNPfR-1" edge="1">
          <mxGeometry relative="1" as="geometry" />
        </mxCell>
        <mxCell id="2CjsqzTwXc4l-IepNPfR-92" value="&lt;span style=&quot;font-size: 10px;&quot;&gt;CurrentDriver&lt;/span&gt;" style="ellipse;whiteSpace=wrap;html=1;fillColor=#fa6800;fontColor=#000000;strokeColor=#C73500;" parent="1" vertex="1">
          <mxGeometry x="-70" y="160" width="70" height="30" as="geometry" />
        </mxCell>
        <mxCell id="2CjsqzTwXc4l-IepNPfR-132" style="edgeStyle=orthogonalEdgeStyle;rounded=0;orthogonalLoop=1;jettySize=auto;html=1;exitX=0;exitY=0.5;exitDx=0;exitDy=0;entryX=0;entryY=0.5;entryDx=0;entryDy=0;endArrow=none;endFill=0;" parent="1" source="2CjsqzTwXc4l-IepNPfR-93" target="2CjsqzTwXc4l-IepNPfR-1" edge="1">
          <mxGeometry relative="1" as="geometry" />
        </mxCell>
        <mxCell id="2CjsqzTwXc4l-IepNPfR-93" value="&lt;font style=&quot;font-size: 10px;&quot;&gt;Age&lt;/font&gt;" style="ellipse;whiteSpace=wrap;html=1;fillColor=#0050ef;fontColor=#ffffff;strokeColor=#001DBC;" parent="1" vertex="1">
          <mxGeometry x="40" y="-80" width="70" height="30" as="geometry" />
        </mxCell>
        <mxCell id="2CjsqzTwXc4l-IepNPfR-125" style="edgeStyle=orthogonalEdgeStyle;rounded=0;orthogonalLoop=1;jettySize=auto;html=1;exitX=1;exitY=0.5;exitDx=0;exitDy=0;entryX=0;entryY=0.5;entryDx=0;entryDy=0;endArrow=none;endFill=0;" parent="1" source="2CjsqzTwXc4l-IepNPfR-94" target="2CjsqzTwXc4l-IepNPfR-1" edge="1">
          <mxGeometry relative="1" as="geometry" />
        </mxCell>
        <mxCell id="2CjsqzTwXc4l-IepNPfR-94" value="&lt;font style=&quot;font-size: 10px;&quot;&gt;WDC&lt;/font&gt;" style="ellipse;whiteSpace=wrap;html=1;fillColor=#0050ef;fontColor=#ffffff;strokeColor=#001DBC;" parent="1" vertex="1">
          <mxGeometry x="-70" y="40" width="70" height="30" as="geometry" />
        </mxCell>
        <mxCell id="2CjsqzTwXc4l-IepNPfR-123" style="edgeStyle=orthogonalEdgeStyle;rounded=0;orthogonalLoop=1;jettySize=auto;html=1;exitX=1;exitY=0.5;exitDx=0;exitDy=0;entryX=0;entryY=0.5;entryDx=0;entryDy=0;endArrow=none;endFill=0;" parent="1" source="2CjsqzTwXc4l-IepNPfR-95" target="2CjsqzTwXc4l-IepNPfR-1" edge="1">
          <mxGeometry relative="1" as="geometry" />
        </mxCell>
        <mxCell id="2CjsqzTwXc4l-IepNPfR-95" value="&lt;font style=&quot;font-size: 10px;&quot;&gt;Nationality&lt;/font&gt;" style="ellipse;whiteSpace=wrap;html=1;fillColor=#60a917;fontColor=#ffffff;strokeColor=#2D7600;" parent="1" vertex="1">
          <mxGeometry x="-70" y="-40" width="70" height="30" as="geometry" />
        </mxCell>
        <mxCell id="2CjsqzTwXc4l-IepNPfR-127" style="edgeStyle=orthogonalEdgeStyle;rounded=0;orthogonalLoop=1;jettySize=auto;html=1;exitX=1;exitY=0.5;exitDx=0;exitDy=0;entryX=0;entryY=0.5;entryDx=0;entryDy=0;endArrow=none;endFill=0;" parent="1" source="2CjsqzTwXc4l-IepNPfR-96" target="2CjsqzTwXc4l-IepNPfR-1" edge="1">
          <mxGeometry relative="1" as="geometry" />
        </mxCell>
        <mxCell id="2CjsqzTwXc4l-IepNPfR-96" value="&lt;font style=&quot;font-size: 10px;&quot;&gt;GPentered&lt;/font&gt;" style="ellipse;whiteSpace=wrap;html=1;fillColor=#0050ef;fontColor=#ffffff;strokeColor=#001DBC;" parent="1" vertex="1">
          <mxGeometry x="-70" y="80" width="70" height="30" as="geometry" />
        </mxCell>
        <mxCell id="2CjsqzTwXc4l-IepNPfR-124" style="edgeStyle=orthogonalEdgeStyle;rounded=0;orthogonalLoop=1;jettySize=auto;html=1;exitX=1;exitY=0.5;exitDx=0;exitDy=0;entryX=0;entryY=0.5;entryDx=0;entryDy=0;endArrow=none;endFill=0;" parent="1" source="2CjsqzTwXc4l-IepNPfR-97" target="2CjsqzTwXc4l-IepNPfR-1" edge="1">
          <mxGeometry relative="1" as="geometry" />
        </mxCell>
        <mxCell id="2CjsqzTwXc4l-IepNPfR-97" value="&lt;font style=&quot;font-size: 10px;&quot;&gt;CareerPoints&lt;/font&gt;" style="ellipse;whiteSpace=wrap;html=1;fillColor=#e51400;fontColor=#ffffff;strokeColor=#B20000;" parent="1" vertex="1">
          <mxGeometry x="-70" width="70" height="30" as="geometry" />
        </mxCell>
        <mxCell id="2CjsqzTwXc4l-IepNPfR-121" style="edgeStyle=orthogonalEdgeStyle;rounded=0;orthogonalLoop=1;jettySize=auto;html=1;exitX=1;exitY=0.5;exitDx=0;exitDy=0;entryX=0;entryY=0.5;entryDx=0;entryDy=0;endArrow=none;endFill=0;" parent="1" source="2CjsqzTwXc4l-IepNPfR-99" target="2CjsqzTwXc4l-IepNPfR-1" edge="1">
          <mxGeometry relative="1" as="geometry" />
        </mxCell>
        <mxCell id="2CjsqzTwXc4l-IepNPfR-99" value="&lt;font style=&quot;font-size: 10px;&quot;&gt;FirstName&lt;/font&gt;" style="ellipse;whiteSpace=wrap;html=1;fillColor=#60a917;fontColor=#ffffff;strokeColor=#2D7600;" parent="1" vertex="1">
          <mxGeometry x="-70" y="-120" width="70" height="30" as="geometry" />
        </mxCell>
        <mxCell id="2CjsqzTwXc4l-IepNPfR-133" style="edgeStyle=orthogonalEdgeStyle;rounded=0;orthogonalLoop=1;jettySize=auto;html=1;exitX=0;exitY=0.5;exitDx=0;exitDy=0;entryX=0;entryY=0.5;entryDx=0;entryDy=0;endArrow=none;endFill=0;" parent="1" source="2CjsqzTwXc4l-IepNPfR-100" target="2CjsqzTwXc4l-IepNPfR-1" edge="1">
          <mxGeometry relative="1" as="geometry" />
        </mxCell>
        <mxCell id="2CjsqzTwXc4l-IepNPfR-100" value="&lt;font style=&quot;font-size: 10px;&quot;&gt;StartYear&lt;/font&gt;" style="ellipse;whiteSpace=wrap;html=1;fillColor=#0050ef;fontColor=#ffffff;strokeColor=#001DBC;" parent="1" vertex="1">
          <mxGeometry x="40" y="-40" width="70" height="30" as="geometry" />
        </mxCell>
        <mxCell id="2CjsqzTwXc4l-IepNPfR-120" style="edgeStyle=orthogonalEdgeStyle;rounded=0;orthogonalLoop=1;jettySize=auto;html=1;exitX=1;exitY=0.5;exitDx=0;exitDy=0;entryX=0;entryY=0.5;entryDx=0;entryDy=0;endArrow=none;endFill=0;" parent="1" source="2CjsqzTwXc4l-IepNPfR-101" target="2CjsqzTwXc4l-IepNPfR-1" edge="1">
          <mxGeometry relative="1" as="geometry" />
        </mxCell>
        <mxCell id="2CjsqzTwXc4l-IepNPfR-101" value="&lt;font style=&quot;font-size: 10px;&quot;&gt;&lt;u&gt;&lt;b&gt;DriverID&lt;/b&gt;&lt;/u&gt;&lt;/font&gt;" style="ellipse;whiteSpace=wrap;html=1;fillColor=#e3c800;strokeColor=#B09500;fontColor=#000000;" parent="1" vertex="1">
          <mxGeometry x="-70" y="-160" width="70" height="30" as="geometry" />
        </mxCell>
        <mxCell id="2CjsqzTwXc4l-IepNPfR-131" style="edgeStyle=orthogonalEdgeStyle;rounded=0;orthogonalLoop=1;jettySize=auto;html=1;exitX=0;exitY=0.5;exitDx=0;exitDy=0;entryX=0;entryY=0.5;entryDx=0;entryDy=0;endArrow=none;endFill=0;" parent="1" source="2CjsqzTwXc4l-IepNPfR-102" target="2CjsqzTwXc4l-IepNPfR-1" edge="1">
          <mxGeometry relative="1" as="geometry" />
        </mxCell>
        <mxCell id="2CjsqzTwXc4l-IepNPfR-102" value="&lt;font style=&quot;font-size: 10px;&quot;&gt;LastName&lt;/font&gt;" style="ellipse;whiteSpace=wrap;html=1;fillColor=#60a917;fontColor=#ffffff;strokeColor=#2D7600;" parent="1" vertex="1">
          <mxGeometry x="40" y="-120" width="70" height="30" as="geometry" />
        </mxCell>
        <mxCell id="2CjsqzTwXc4l-IepNPfR-128" style="edgeStyle=orthogonalEdgeStyle;rounded=0;orthogonalLoop=1;jettySize=auto;html=1;exitX=1;exitY=0.5;exitDx=0;exitDy=0;endArrow=none;endFill=0;" parent="1" source="2CjsqzTwXc4l-IepNPfR-103" edge="1">
          <mxGeometry relative="1" as="geometry">
            <mxPoint x="40" y="130.00000000000023" as="targetPoint" />
          </mxGeometry>
        </mxCell>
        <mxCell id="2CjsqzTwXc4l-IepNPfR-103" value="&lt;font style=&quot;font-size: 10px;&quot;&gt;GPwins&lt;/font&gt;" style="ellipse;whiteSpace=wrap;html=1;fillColor=#0050ef;fontColor=#ffffff;strokeColor=#001DBC;" parent="1" vertex="1">
          <mxGeometry x="-70" y="120" width="70" height="30" as="geometry" />
        </mxCell>
        <mxCell id="2CjsqzTwXc4l-IepNPfR-134" style="edgeStyle=orthogonalEdgeStyle;rounded=0;orthogonalLoop=1;jettySize=auto;html=1;exitX=0;exitY=0.5;exitDx=0;exitDy=0;entryX=0;entryY=0.5;entryDx=0;entryDy=0;endArrow=none;endFill=0;" parent="1" source="2CjsqzTwXc4l-IepNPfR-104" target="2CjsqzTwXc4l-IepNPfR-1" edge="1">
          <mxGeometry relative="1" as="geometry" />
        </mxCell>
        <mxCell id="2CjsqzTwXc4l-IepNPfR-104" value="&lt;font style=&quot;font-size: 10px;&quot;&gt;PointsIn2023&lt;/font&gt;" style="ellipse;whiteSpace=wrap;html=1;fillColor=#0050ef;fontColor=#ffffff;strokeColor=#001DBC;" parent="1" vertex="1">
          <mxGeometry x="40" width="70" height="30" as="geometry" />
        </mxCell>
        <mxCell id="rVtFvgGRAsYfP49UwafR-3" style="edgeStyle=orthogonalEdgeStyle;rounded=0;orthogonalLoop=1;jettySize=auto;html=1;exitX=0;exitY=0.5;exitDx=0;exitDy=0;entryX=1;entryY=0;entryDx=0;entryDy=0;endArrow=none;endFill=0;" parent="1" source="2CjsqzTwXc4l-IepNPfR-107" target="2CjsqzTwXc4l-IepNPfR-86" edge="1">
          <mxGeometry relative="1" as="geometry">
            <Array as="points">
              <mxPoint x="125" y="240" />
            </Array>
          </mxGeometry>
        </mxCell>
        <mxCell id="2CjsqzTwXc4l-IepNPfR-107" value="&lt;font style=&quot;font-size: 9px;&quot;&gt;&lt;u&gt;&lt;b&gt;DriverInTeamID&lt;/b&gt;&lt;/u&gt;&lt;/font&gt;" style="ellipse;whiteSpace=wrap;html=1;fillColor=#e3c800;fontColor=#000000;strokeColor=#B09500;" parent="1" vertex="1">
          <mxGeometry x="160" y="225" width="70" height="30" as="geometry" />
        </mxCell>
        <mxCell id="2CjsqzTwXc4l-IepNPfR-144" style="edgeStyle=orthogonalEdgeStyle;rounded=0;orthogonalLoop=1;jettySize=auto;html=1;exitX=1;exitY=0.5;exitDx=0;exitDy=0;entryX=0;entryY=0.5;entryDx=0;entryDy=0;endArrow=none;endFill=0;" parent="1" source="2CjsqzTwXc4l-IepNPfR-108" target="2CjsqzTwXc4l-IepNPfR-4" edge="1">
          <mxGeometry relative="1" as="geometry" />
        </mxCell>
        <mxCell id="2CjsqzTwXc4l-IepNPfR-108" value="&lt;font style=&quot;font-size: 10px;&quot;&gt;&lt;u&gt;&lt;b&gt;TeamID&lt;/b&gt;&lt;/u&gt;&lt;/font&gt;" style="ellipse;whiteSpace=wrap;html=1;fillColor=#e3c800;fontColor=#000000;strokeColor=#B09500;" parent="1" vertex="1">
          <mxGeometry x="-70" y="280" width="70" height="30" as="geometry" />
        </mxCell>
        <mxCell id="2CjsqzTwXc4l-IepNPfR-145" style="edgeStyle=orthogonalEdgeStyle;rounded=0;orthogonalLoop=1;jettySize=auto;html=1;exitX=1;exitY=0.5;exitDx=0;exitDy=0;entryX=0;entryY=0.5;entryDx=0;entryDy=0;endArrow=none;endFill=0;" parent="1" source="2CjsqzTwXc4l-IepNPfR-110" target="2CjsqzTwXc4l-IepNPfR-4" edge="1">
          <mxGeometry relative="1" as="geometry" />
        </mxCell>
        <mxCell id="2CjsqzTwXc4l-IepNPfR-110" value="&lt;font style=&quot;font-size: 10px;&quot;&gt;TeamName&lt;/font&gt;" style="ellipse;whiteSpace=wrap;html=1;fillColor=#60a917;fontColor=#ffffff;strokeColor=#2D7600;" parent="1" vertex="1">
          <mxGeometry x="-70" y="320" width="70" height="30" as="geometry" />
        </mxCell>
        <mxCell id="2CjsqzTwXc4l-IepNPfR-146" style="edgeStyle=orthogonalEdgeStyle;rounded=0;orthogonalLoop=1;jettySize=auto;html=1;exitX=0;exitY=0.5;exitDx=0;exitDy=0;entryX=0;entryY=0.5;entryDx=0;entryDy=0;endArrow=none;endFill=0;" parent="1" source="2CjsqzTwXc4l-IepNPfR-111" target="2CjsqzTwXc4l-IepNPfR-4" edge="1">
          <mxGeometry relative="1" as="geometry" />
        </mxCell>
        <mxCell id="2CjsqzTwXc4l-IepNPfR-111" value="&lt;font style=&quot;font-size: 10px;&quot;&gt;TeamExits&lt;/font&gt;" style="ellipse;whiteSpace=wrap;html=1;fillColor=#fa6800;fontColor=#000000;strokeColor=#C73500;" parent="1" vertex="1">
          <mxGeometry x="40" y="520" width="70" height="30" as="geometry" />
        </mxCell>
        <mxCell id="2CjsqzTwXc4l-IepNPfR-147" style="edgeStyle=orthogonalEdgeStyle;rounded=0;orthogonalLoop=1;jettySize=auto;html=1;exitX=0;exitY=0.5;exitDx=0;exitDy=0;entryX=0;entryY=0.5;entryDx=0;entryDy=0;endArrow=none;endFill=0;" parent="1" source="2CjsqzTwXc4l-IepNPfR-112" target="2CjsqzTwXc4l-IepNPfR-4" edge="1">
          <mxGeometry relative="1" as="geometry" />
        </mxCell>
        <mxCell id="2CjsqzTwXc4l-IepNPfR-112" value="&lt;font style=&quot;font-size: 10px;&quot;&gt;GPentered&lt;/font&gt;" style="ellipse;whiteSpace=wrap;html=1;fillColor=#0050ef;fontColor=#ffffff;strokeColor=#001DBC;" parent="1" vertex="1">
          <mxGeometry x="40" y="480" width="70" height="30" as="geometry" />
        </mxCell>
        <mxCell id="2CjsqzTwXc4l-IepNPfR-148" style="edgeStyle=orthogonalEdgeStyle;rounded=0;orthogonalLoop=1;jettySize=auto;html=1;exitX=0;exitY=0.5;exitDx=0;exitDy=0;entryX=0;entryY=0.5;entryDx=0;entryDy=0;endArrow=none;endFill=0;" parent="1" source="2CjsqzTwXc4l-IepNPfR-113" target="2CjsqzTwXc4l-IepNPfR-4" edge="1">
          <mxGeometry relative="1" as="geometry" />
        </mxCell>
        <mxCell id="2CjsqzTwXc4l-IepNPfR-113" value="&lt;font style=&quot;font-size: 10px;&quot;&gt;TeamPrincipal&lt;/font&gt;" style="ellipse;whiteSpace=wrap;html=1;fillColor=#60a917;fontColor=#ffffff;strokeColor=#2D7600;" parent="1" vertex="1">
          <mxGeometry x="40" y="440" width="70" height="30" as="geometry" />
        </mxCell>
        <mxCell id="2CjsqzTwXc4l-IepNPfR-138" style="edgeStyle=orthogonalEdgeStyle;rounded=0;orthogonalLoop=1;jettySize=auto;html=1;exitX=1;exitY=0.5;exitDx=0;exitDy=0;entryX=0;entryY=0.5;entryDx=0;entryDy=0;endArrow=none;endFill=0;" parent="1" source="2CjsqzTwXc4l-IepNPfR-114" target="2CjsqzTwXc4l-IepNPfR-4" edge="1">
          <mxGeometry relative="1" as="geometry" />
        </mxCell>
        <mxCell id="2CjsqzTwXc4l-IepNPfR-114" value="&lt;font style=&quot;font-size: 8px;&quot;&gt;ConstructorsCSwin&lt;/font&gt;" style="ellipse;whiteSpace=wrap;html=1;fillColor=#0050ef;fontColor=#ffffff;strokeColor=#001DBC;" parent="1" vertex="1">
          <mxGeometry x="-70" y="520" width="70" height="30" as="geometry" />
        </mxCell>
        <mxCell id="2CjsqzTwXc4l-IepNPfR-140" style="edgeStyle=orthogonalEdgeStyle;rounded=0;orthogonalLoop=1;jettySize=auto;html=1;exitX=1;exitY=0.5;exitDx=0;exitDy=0;entryX=0;entryY=0.5;entryDx=0;entryDy=0;endArrow=none;endFill=0;" parent="1" source="2CjsqzTwXc4l-IepNPfR-115" target="2CjsqzTwXc4l-IepNPfR-4" edge="1">
          <mxGeometry relative="1" as="geometry" />
        </mxCell>
        <mxCell id="2CjsqzTwXc4l-IepNPfR-115" value="&lt;font style=&quot;font-size: 10px;&quot;&gt;Founder&lt;/font&gt;" style="ellipse;whiteSpace=wrap;html=1;fillColor=#60a917;fontColor=#ffffff;strokeColor=#2D7600;" parent="1" vertex="1">
          <mxGeometry x="-70" y="480" width="70" height="30" as="geometry" />
        </mxCell>
        <mxCell id="2CjsqzTwXc4l-IepNPfR-141" style="edgeStyle=orthogonalEdgeStyle;rounded=0;orthogonalLoop=1;jettySize=auto;html=1;exitX=1;exitY=0.5;exitDx=0;exitDy=0;entryX=0;entryY=0.5;entryDx=0;entryDy=0;endArrow=none;endFill=0;" parent="1" source="2CjsqzTwXc4l-IepNPfR-116" target="2CjsqzTwXc4l-IepNPfR-4" edge="1">
          <mxGeometry relative="1" as="geometry" />
        </mxCell>
        <mxCell id="2CjsqzTwXc4l-IepNPfR-116" value="&lt;font style=&quot;font-size: 10px;&quot;&gt;YearOf1GP&lt;/font&gt;" style="ellipse;whiteSpace=wrap;html=1;fillColor=#0050ef;fontColor=#ffffff;strokeColor=#001DBC;" parent="1" vertex="1">
          <mxGeometry x="-70" y="440" width="70" height="30" as="geometry" />
        </mxCell>
        <mxCell id="2CjsqzTwXc4l-IepNPfR-142" style="edgeStyle=orthogonalEdgeStyle;rounded=0;orthogonalLoop=1;jettySize=auto;html=1;exitX=1;exitY=0.5;exitDx=0;exitDy=0;entryX=0;entryY=0.5;entryDx=0;entryDy=0;endArrow=none;endFill=0;" parent="1" source="2CjsqzTwXc4l-IepNPfR-117" target="2CjsqzTwXc4l-IepNPfR-4" edge="1">
          <mxGeometry relative="1" as="geometry" />
        </mxCell>
        <mxCell id="2CjsqzTwXc4l-IepNPfR-117" value="&lt;font style=&quot;font-size: 10px;&quot;&gt;Country&lt;/font&gt;" style="ellipse;whiteSpace=wrap;html=1;fillColor=#60a917;fontColor=#ffffff;strokeColor=#2D7600;" parent="1" vertex="1">
          <mxGeometry x="-70" y="400" width="70" height="30" as="geometry" />
        </mxCell>
        <mxCell id="2CjsqzTwXc4l-IepNPfR-143" style="edgeStyle=orthogonalEdgeStyle;rounded=0;orthogonalLoop=1;jettySize=auto;html=1;exitX=1;exitY=0.5;exitDx=0;exitDy=0;endArrow=none;endFill=0;" parent="1" source="2CjsqzTwXc4l-IepNPfR-118" edge="1">
          <mxGeometry relative="1" as="geometry">
            <mxPoint x="40" y="370" as="targetPoint" />
          </mxGeometry>
        </mxCell>
        <mxCell id="2CjsqzTwXc4l-IepNPfR-118" value="&lt;font style=&quot;font-size: 10px;&quot;&gt;OfficialName&lt;/font&gt;" style="ellipse;whiteSpace=wrap;html=1;fillColor=#60a917;fontColor=#ffffff;strokeColor=#2D7600;" parent="1" vertex="1">
          <mxGeometry x="-70" y="360" width="70" height="30" as="geometry" />
        </mxCell>
        <mxCell id="2CjsqzTwXc4l-IepNPfR-149" value="&lt;font style=&quot;font-size: 9px;&quot;&gt;1&lt;/font&gt;" style="text;html=1;strokeColor=none;fillColor=none;align=center;verticalAlign=middle;whiteSpace=wrap;rounded=0;" parent="1" vertex="1">
          <mxGeometry x="470" y="30" width="20" height="10" as="geometry" />
        </mxCell>
        <mxCell id="2CjsqzTwXc4l-IepNPfR-150" value="&lt;font style=&quot;font-size: 9px;&quot;&gt;1&lt;/font&gt;" style="text;html=1;strokeColor=none;fillColor=none;align=center;verticalAlign=middle;whiteSpace=wrap;rounded=0;" parent="1" vertex="1">
          <mxGeometry x="460" y="60" width="20" height="10" as="geometry" />
        </mxCell>
        <mxCell id="2CjsqzTwXc4l-IepNPfR-151" value="&lt;font style=&quot;font-size: 9px;&quot;&gt;1&lt;/font&gt;" style="text;html=1;strokeColor=none;fillColor=none;align=center;verticalAlign=middle;whiteSpace=wrap;rounded=0;" parent="1" vertex="1">
          <mxGeometry x="470" y="200" width="20" height="10" as="geometry" />
        </mxCell>
        <mxCell id="2CjsqzTwXc4l-IepNPfR-152" value="&lt;font style=&quot;font-size: 9px;&quot;&gt;1&lt;/font&gt;" style="text;html=1;strokeColor=none;fillColor=none;align=center;verticalAlign=middle;whiteSpace=wrap;rounded=0;" parent="1" vertex="1">
          <mxGeometry x="620" y="180" width="20" height="10" as="geometry" />
        </mxCell>
        <mxCell id="2CjsqzTwXc4l-IepNPfR-153" value="&lt;font style=&quot;font-size: 9px;&quot;&gt;1&lt;/font&gt;" style="text;html=1;strokeColor=none;fillColor=none;align=center;verticalAlign=middle;whiteSpace=wrap;rounded=0;" parent="1" vertex="1">
          <mxGeometry x="460" y="235" width="20" height="10" as="geometry" />
        </mxCell>
        <mxCell id="2CjsqzTwXc4l-IepNPfR-156" value="&lt;font style=&quot;font-size: 9px;&quot;&gt;1&lt;/font&gt;" style="text;html=1;strokeColor=none;fillColor=none;align=center;verticalAlign=middle;whiteSpace=wrap;rounded=0;" parent="1" vertex="1">
          <mxGeometry x="610" y="215" width="20" height="10" as="geometry" />
        </mxCell>
        <mxCell id="2CjsqzTwXc4l-IepNPfR-158" value="&lt;font style=&quot;font-size: 9px;&quot;&gt;1&lt;/font&gt;" style="text;html=1;strokeColor=none;fillColor=none;align=center;verticalAlign=middle;whiteSpace=wrap;rounded=0;" parent="1" vertex="1">
          <mxGeometry x="660" y="155" width="20" height="10" as="geometry" />
        </mxCell>
        <mxCell id="2CjsqzTwXc4l-IepNPfR-159" value="&lt;font style=&quot;font-size: 9px;&quot;&gt;1&lt;/font&gt;" style="text;html=1;strokeColor=none;fillColor=none;align=center;verticalAlign=middle;whiteSpace=wrap;rounded=0;" parent="1" vertex="1">
          <mxGeometry x="610" y="155" width="20" height="10" as="geometry" />
        </mxCell>
        <mxCell id="2CjsqzTwXc4l-IepNPfR-161" value="&lt;font style=&quot;font-size: 9px;&quot;&gt;1&lt;/font&gt;" style="text;html=1;strokeColor=none;fillColor=none;align=center;verticalAlign=middle;whiteSpace=wrap;rounded=0;" parent="1" vertex="1">
          <mxGeometry x="470" y="380" width="20" height="10" as="geometry" />
        </mxCell>
        <mxCell id="2CjsqzTwXc4l-IepNPfR-162" value="&lt;font style=&quot;font-size: 9px;&quot;&gt;1&lt;/font&gt;" style="text;html=1;strokeColor=none;fillColor=none;align=center;verticalAlign=middle;whiteSpace=wrap;rounded=0;" parent="1" vertex="1">
          <mxGeometry x="470" y="410" width="20" height="10" as="geometry" />
        </mxCell>
        <mxCell id="2CjsqzTwXc4l-IepNPfR-163" value="&lt;font style=&quot;font-size: 9px;&quot;&gt;1&lt;/font&gt;" style="text;html=1;strokeColor=none;fillColor=none;align=center;verticalAlign=middle;whiteSpace=wrap;rounded=0;" parent="1" vertex="1">
          <mxGeometry x="610" y="300" width="20" height="10" as="geometry" />
        </mxCell>
        <mxCell id="2CjsqzTwXc4l-IepNPfR-164" value="&lt;font style=&quot;font-size: 9px;&quot;&gt;1&lt;/font&gt;" style="text;html=1;strokeColor=none;fillColor=none;align=center;verticalAlign=middle;whiteSpace=wrap;rounded=0;" parent="1" vertex="1">
          <mxGeometry x="160" y="90" width="20" height="10" as="geometry" />
        </mxCell>
        <mxCell id="2CjsqzTwXc4l-IepNPfR-165" value="&lt;font style=&quot;font-size: 9px;&quot;&gt;1&lt;/font&gt;" style="text;html=1;strokeColor=none;fillColor=none;align=center;verticalAlign=middle;whiteSpace=wrap;rounded=0;" parent="1" vertex="1">
          <mxGeometry x="160" y="125" width="20" height="10" as="geometry" />
        </mxCell>
        <mxCell id="2CjsqzTwXc4l-IepNPfR-166" value="&lt;font style=&quot;font-size: 9px;&quot;&gt;1&lt;/font&gt;" style="text;html=1;strokeColor=none;fillColor=none;align=center;verticalAlign=middle;whiteSpace=wrap;rounded=0;" parent="1" vertex="1">
          <mxGeometry x="160" y="150" width="20" height="10" as="geometry" />
        </mxCell>
        <mxCell id="2CjsqzTwXc4l-IepNPfR-167" value="&lt;font style=&quot;font-size: 9px;&quot;&gt;cn&lt;/font&gt;" style="text;html=1;strokeColor=none;fillColor=none;align=center;verticalAlign=middle;whiteSpace=wrap;rounded=0;" parent="1" vertex="1">
          <mxGeometry x="310" y="60" width="20" height="10" as="geometry" />
        </mxCell>
        <mxCell id="2CjsqzTwXc4l-IepNPfR-170" value="&lt;font style=&quot;font-size: 9px;&quot;&gt;1&lt;/font&gt;" style="text;html=1;strokeColor=none;fillColor=none;align=center;verticalAlign=middle;whiteSpace=wrap;rounded=0;" parent="1" vertex="1">
          <mxGeometry x="660" y="295" width="20" height="10" as="geometry" />
        </mxCell>
        <mxCell id="2CjsqzTwXc4l-IepNPfR-173" value="&lt;font style=&quot;font-size: 9px;&quot;&gt;cn&lt;/font&gt;" style="text;html=1;strokeColor=none;fillColor=none;align=center;verticalAlign=middle;whiteSpace=wrap;rounded=0;" parent="1" vertex="1">
          <mxGeometry x="310" y="380" width="20" height="10" as="geometry" />
        </mxCell>
        <mxCell id="2CjsqzTwXc4l-IepNPfR-174" value="&lt;font style=&quot;font-size: 9px;&quot;&gt;cn&lt;/font&gt;" style="text;html=1;strokeColor=none;fillColor=none;align=center;verticalAlign=middle;whiteSpace=wrap;rounded=0;" parent="1" vertex="1">
          <mxGeometry x="310" y="215" width="20" height="10" as="geometry" />
        </mxCell>
        <mxCell id="2CjsqzTwXc4l-IepNPfR-177" value="&lt;font style=&quot;font-size: 9px;&quot;&gt;n&lt;/font&gt;" style="text;html=1;strokeColor=none;fillColor=none;align=center;verticalAlign=middle;whiteSpace=wrap;rounded=0;" parent="1" vertex="1">
          <mxGeometry x="100" y="310" width="20" height="10" as="geometry" />
        </mxCell>
        <mxCell id="2CjsqzTwXc4l-IepNPfR-179" value="&lt;font style=&quot;font-size: 9px;&quot;&gt;n&lt;/font&gt;" style="text;html=1;strokeColor=none;fillColor=none;align=center;verticalAlign=middle;whiteSpace=wrap;rounded=0;" parent="1" vertex="1">
          <mxGeometry x="80" y="200" width="20" height="10" as="geometry" />
        </mxCell>
        <mxCell id="2CjsqzTwXc4l-IepNPfR-180" value="&lt;font color=&quot;#cccc00&quot;&gt;Primary Key - INT&lt;/font&gt;&lt;br&gt;&lt;font color=&quot;#0000cc&quot;&gt;INT&lt;/font&gt;&lt;br&gt;&lt;font color=&quot;#cc0000&quot;&gt;FLOAT&lt;/font&gt;&lt;br&gt;&lt;font color=&quot;#00cc00&quot;&gt;VARCHAR&lt;/font&gt;&lt;br&gt;&lt;font color=&quot;#ff8000&quot;&gt;BIT&lt;/font&gt;&lt;br&gt;&lt;font color=&quot;#ff0080&quot;&gt;DATE&lt;/font&gt;" style="text;html=1;strokeColor=none;fillColor=none;align=left;verticalAlign=middle;whiteSpace=wrap;rounded=0;" parent="1" vertex="1">
          <mxGeometry x="620" y="-75" width="100" height="100" as="geometry" />
        </mxCell>
        <mxCell id="2CjsqzTwXc4l-IepNPfR-181" value="&lt;font style=&quot;&quot;&gt;&lt;span style=&quot;font-size: 26px;&quot;&gt;Formula 1&lt;/span&gt;&lt;br&gt;&lt;font style=&quot;font-size: 19px;&quot;&gt;E&lt;/font&gt;&lt;/font&gt;&lt;font style=&quot;font-size: 19px;&quot;&gt;R - Diagramm&lt;/font&gt;" style="text;html=1;strokeColor=none;fillColor=none;align=center;verticalAlign=middle;whiteSpace=wrap;rounded=0;" parent="1" vertex="1">
          <mxGeometry x="260" y="-155" width="280" height="80" as="geometry" />
        </mxCell>
      </root>
    </mxGraphModel>
  </diagram>
</mxfile>
